<svg xmlns="http://www.w3.org/2000/svg" xmlns:xlink="http://www.w3.org/1999/xlink" width="40" height="40" viewBox="0 0 40 40">
  <defs>
    <clipPath id="clip-book_mark">
      <rect width="40" height="40"/>
    </clipPath>
  </defs>
  <g id="book_mark" clip-path="url(#clip-book_mark)">
    <g id="bookmarks-24px_1_" data-name="bookmarks-24px (1)" transform="translate(3 2)">
      <path id="Path_1" data-name="Path 1" d="M0,0H35V35H0Z" fill="none"/>
      <path id="Path_2" data-name="Path 2" d="M28.778,26.5,32,28V4a3.126,3.126,0,0,0-3.222-3H12.651A3.112,3.112,0,0,0,9.444,4H25.556a3.126,3.126,0,0,1,3.222,3ZM22.333,7H6.222A3.126,3.126,0,0,0,3,10V34l11.278-4.5L25.556,34V10A3.126,3.126,0,0,0,22.333,7Z" fill="#fff"/>
    </g>
  </g>
</svg>
