<svg xmlns="http://www.w3.org/2000/svg" xmlns:xlink="http://www.w3.org/1999/xlink" width="40" height="40" viewBox="0 0 40 40">
  <defs>
    <clipPath id="clip-home_12">
      <rect width="40" height="40"/>
    </clipPath>
  </defs>
  <g id="home_12" clip-path="url(#clip-home_12)">
    <g id="home-24px_1_" data-name="home-24px (1)" transform="translate(8 8)">
      <path id="Path_3" data-name="Path 3" d="M0,0H24V24H0Z" fill="none"/>
      <path id="Path_4" data-name="Path 4" d="M10,19V14h4v5a1,1,0,0,0,1,1h3a1,1,0,0,0,1-1V12h1.7a.5.5,0,0,0,.33-.87L12.67,3.6a1.008,1.008,0,0,0-1.34,0L2.97,11.13A.5.5,0,0,0,3.3,12H5v7a1,1,0,0,0,1,1H9A1,1,0,0,0,10,19Z" fill="#fbfbfb"/>
    </g>
  </g>
</svg>
