<svg xmlns="http://www.w3.org/2000/svg" xmlns:xlink="http://www.w3.org/1999/xlink" width="40" height="40" viewBox="0 0 40 40">
  <defs>
    <clipPath id="clip-post">
      <rect width="40" height="40"/>
    </clipPath>
  </defs>
  <g id="post" clip-path="url(#clip-post)">
    <path id="library_books-24px" d="M3.75,9A1.755,1.755,0,0,0,2,10.75V33.5A3.51,3.51,0,0,0,5.5,37H28.25a1.75,1.75,0,0,0,0-3.5h-21A1.755,1.755,0,0,1,5.5,31.75v-21A1.755,1.755,0,0,0,3.75,9ZM33.5,2h-21A3.51,3.51,0,0,0,9,5.5v21A3.51,3.51,0,0,0,12.5,30h21A3.51,3.51,0,0,0,37,26.5V5.5A3.51,3.51,0,0,0,33.5,2ZM30,17.75H16a1.75,1.75,0,0,1,0-3.5H30a1.75,1.75,0,0,1,0,3.5Zm-7,7H16a1.75,1.75,0,0,1,0-3.5h7a1.75,1.75,0,0,1,0,3.5Zm7-14H16a1.75,1.75,0,0,1,0-3.5H30a1.75,1.75,0,0,1,0,3.5Z" transform="translate(1 1)" fill="#f9b54a"/>
  </g>
</svg>
