<svg xmlns="http://www.w3.org/2000/svg" xmlns:xlink="http://www.w3.org/1999/xlink" width="40" height="40" viewBox="0 0 40 40">
  <defs>
    <clipPath id="clip-post_add">
      <rect width="40" height="40"/>
    </clipPath>
  </defs>
  <g id="post_add" clip-path="url(#clip-post_add)">
    <path id="library_add-24px" d="M3.75,9A1.755,1.755,0,0,0,2,10.75V33.5A3.51,3.51,0,0,0,5.5,37H28.25a1.75,1.75,0,0,0,0-3.5h-21A1.755,1.755,0,0,1,5.5,31.75v-21A1.755,1.755,0,0,0,3.75,9ZM33.5,2h-21A3.51,3.51,0,0,0,9,5.5v21A3.51,3.51,0,0,0,12.5,30h21A3.51,3.51,0,0,0,37,26.5V5.5A3.51,3.51,0,0,0,33.5,2ZM30,17.75H24.75V23a1.75,1.75,0,0,1-3.5,0V17.75H16a1.75,1.75,0,0,1,0-3.5h5.25V9a1.75,1.75,0,0,1,3.5,0v5.25H30a1.75,1.75,0,0,1,0,3.5Z" transform="translate(1 1)" fill="#fff"/>
  </g>
</svg>
