<svg xmlns="http://www.w3.org/2000/svg" xmlns:xlink="http://www.w3.org/1999/xlink" width="40" height="40" viewBox="0 0 40 40">
  <defs>
    <clipPath id="clip-user">
      <rect width="40" height="40"/>
    </clipPath>
  </defs>
  <g id="user" clip-path="url(#clip-user)">
    <g id="person-24px_2_" data-name="person-24px (2)" transform="translate(3 2)">
      <path id="Path_5" data-name="Path 5" d="M0,0H35V38H0Z" fill="none"/>
      <path id="Path_6" data-name="Path 6" d="M17.5,19c3.729,0,6.75-3.356,6.75-7.5S21.229,4,17.5,4s-6.75,3.356-6.75,7.5S13.771,19,17.5,19Zm0,3.75c-4.506,0-13.5,2.513-13.5,7.5v1.875A1.794,1.794,0,0,0,5.688,34H29.313A1.794,1.794,0,0,0,31,32.125V30.25C31,25.263,22.006,22.75,17.5,22.75Z" fill="#fff"/>
    </g>
  </g>
</svg>
